<svg width="20" height="20" viewBox="0 0 20 20" fill="none" xmlns="http://www.w3.org/2000/svg">
<path d="M9.99999 18.5376C14.6625 18.5376 18.5378 14.6705 18.5378 9.99977C18.5378 5.33727 14.6539 1.46191 9.99142 1.46191C5.32106 1.46191 1.46249 5.33727 1.46249 9.99977C1.46249 14.6705 5.32928 18.5376 9.99999 18.5376ZM10.0004 12.8541C7.48071 12.8541 5.53892 13.7498 4.69321 14.7541C3.57142 13.4991 2.89357 11.833 2.89357 9.99977C2.89357 6.05691 6.04107 2.88477 9.99214 2.88477C13.9346 2.88477 17.1068 6.05727 17.1153 9.99977C17.1153 11.8412 16.4371 13.5069 15.3071 14.7626C14.4618 13.758 12.5204 12.8541 10.0004 12.8541ZM9.99999 11.4312C11.6071 11.448 12.8711 10.0751 12.8711 8.27549C12.8711 6.58441 11.5989 5.17834 9.99964 5.17834C8.39249 5.17834 7.11214 6.58477 7.12892 8.27549C7.13714 10.0751 8.38464 11.4144 9.99999 11.4312Z" fill="#070E30"/>
</svg>
