<svg width="24" height="24" viewBox="0 0 24 24" fill="none" xmlns="http://www.w3.org/2000/svg">
<path d="M11.9999 22.2457C17.5949 22.2457 22.2453 17.6052 22.2453 12.0003C22.2453 6.40531 17.5846 1.75488 11.9896 1.75488C6.38517 1.75488 1.75488 6.40531 1.75488 12.0003C1.75488 17.6052 6.39503 22.2457 11.9999 22.2457ZM12.0003 15.4255C8.97674 15.4255 6.6466 16.5003 5.63174 17.7055C4.2856 16.1995 3.47217 14.2002 3.47217 12.0003C3.47217 7.26888 7.24917 3.46231 11.9905 3.46231C16.7215 3.46231 20.528 7.26931 20.5383 12.0003C20.5383 14.21 19.7245 16.2089 18.3685 17.7157C17.354 16.5102 15.0243 15.4255 12.0003 15.4255ZM11.9999 13.718C13.9285 13.7382 15.4452 12.0907 15.4452 9.93117C15.4452 7.90188 13.9186 6.2146 11.9995 6.2146C10.0709 6.2146 8.53445 7.90231 8.5546 9.93117C8.56446 12.0907 10.0615 13.6979 11.9999 13.718Z" fill="#4B66F5"/>
</svg>
