<svg width="53" height="53" viewBox="0 0 53 53" fill="none" xmlns="http://www.w3.org/2000/svg">
<path d="M7.59497 50.7792V41.4385H16.9357" stroke="#4B66F5" stroke-width="4" stroke-linecap="round" stroke-linejoin="round"/>
<path d="M50.1514 22.0315C51.1433 27.3191 50.3513 32.7865 47.8999 37.5754C45.4485 42.3643 41.4763 46.2037 36.6068 48.4909C31.7374 50.7782 26.2463 51.3838 20.9954 50.2127C15.7445 49.0417 11.0311 46.1602 7.59489 42.0207M2.41637 30.9687C1.42448 25.681 2.21639 20.2137 4.66783 15.4248C7.11926 10.6359 11.0914 6.79648 15.9609 4.50924C20.8304 2.222 26.3215 1.61638 31.5724 2.78743C36.8233 3.95848 41.5367 6.83992 44.9729 10.9795" stroke="#4B66F5" stroke-width="4" stroke-linecap="round" stroke-linejoin="round"/>
<path d="M44.9731 2.22168V11.5624H35.6323" stroke="#4B66F5" stroke-width="4" stroke-linecap="round" stroke-linejoin="round"/>
<path d="M19 35V18.578C18.9999 18.229 19.1157 17.8898 19.3293 17.6138C19.5428 17.3377 19.842 17.1404 20.1799 17.0529C20.5177 16.9653 20.8751 16.9925 21.1959 17.1301C21.5166 17.2676 21.7826 17.5079 21.952 17.813L31.048 34.187C31.2174 34.4921 31.4834 34.7324 31.8041 34.8699C32.1249 35.0075 32.4823 35.0347 32.8201 34.9471C33.158 34.8596 33.4572 34.6623 33.6707 34.3862C33.8843 34.1102 34.0001 33.771 34 33.422V17M16 23H37M16 29H37" stroke="#4B66F5" stroke-width="3" stroke-linecap="round" stroke-linejoin="round"/>
</svg>
