<svg width="62" height="63" viewBox="0 0 62 63" fill="none" xmlns="http://www.w3.org/2000/svg">
<path d="M18.0832 57.3335C16.0278 57.3335 14.0566 56.517 12.6031 55.0636C11.1497 53.6102 10.3332 51.6389 10.3332 49.5835L10.3332 18.5835C9.72846 18.5829 9.14308 18.3701 8.67906 17.9823C8.21504 17.5944 7.9018 17.0561 7.79391 16.461C7.68603 15.866 7.79033 15.2519 8.08866 14.7258C8.38698 14.1998 8.86042 13.795 9.42648 13.5822L30.0931 5.83216C30.6778 5.61301 31.322 5.61301 31.9066 5.83216L52.5733 13.5822C53.1394 13.795 53.6128 14.1998 53.9111 14.7258C54.2095 15.2519 54.3138 15.866 54.2059 16.461C54.098 17.0561 53.7847 17.5944 53.3207 17.9823C52.8567 18.3701 52.2713 18.5829 51.6666 18.5835L51.6666 49.5835C51.6666 51.6389 50.85 53.6102 49.3966 55.0636C47.9432 56.517 45.972 57.3335 43.9166 57.3335L18.0832 57.3335ZM18.0832 52.1668L43.9166 52.1668C44.5493 52.1667 45.16 51.9344 45.6329 51.514C46.1057 51.0935 46.4078 50.5141 46.4818 49.8857L46.4999 49.5835L46.4999 16.8217L30.9999 11.0092L15.4999 16.8217L15.4999 49.5835C15.5 50.2162 15.7323 50.827 16.1527 51.2998C16.5732 51.7726 17.1526 52.0747 17.781 52.1487L18.0832 52.1668Z" fill="#CD4C4C"/>
<path d="M23 41V24.578C22.9999 24.229 23.1157 23.8898 23.3293 23.6138C23.5428 23.3377 23.842 23.1404 24.1799 23.0529C24.5177 22.9653 24.8751 22.9925 25.1959 23.1301C25.5166 23.2676 25.7826 23.5079 25.952 23.813L35.048 40.187C35.2174 40.4921 35.4834 40.7324 35.8041 40.8699C36.1249 41.0075 36.4823 41.0347 36.8201 40.9471C37.158 40.8596 37.4572 40.6623 37.6707 40.3862C37.8843 40.1102 38.0001 39.771 38 39.422V23M20 29H41M20 35H41" stroke="#CD4C4C" stroke-width="3" stroke-linecap="round" stroke-linejoin="round"/>
</svg>
