<svg width="62" height="63" viewBox="0 0 62 63" fill="none" xmlns="http://www.w3.org/2000/svg">
<path d="M43.9168 5.66699C45.9722 5.66699 47.9434 6.48351 49.3969 7.93691C50.8503 9.39032 51.6668 11.3616 51.6668 13.417V44.417C52.2715 44.4176 52.8569 44.6304 53.3209 45.0182C53.785 45.4061 54.0982 45.9444 54.2061 46.5395C54.314 47.1345 54.2097 47.7486 53.9113 48.2747C53.613 48.8007 53.1396 49.2055 52.5735 49.4183L31.9069 57.1683C31.3222 57.3875 30.678 57.3875 30.0934 57.1683L9.42669 49.4183C8.86063 49.2055 8.3872 48.8007 8.08887 48.2747C7.79055 47.7486 7.68624 47.1345 7.79413 46.5395C7.90202 45.9444 8.21525 45.4061 8.67927 45.0182C9.14329 44.6304 9.72868 44.4176 10.3334 44.417V13.417C10.3334 11.3616 11.15 9.39032 12.6034 7.93691C14.0568 6.48351 16.028 5.66699 18.0834 5.66699H43.9168ZM43.9168 10.8337H18.0834C17.4507 10.8337 16.84 11.066 16.3671 11.4865C15.8943 11.907 15.5922 12.4863 15.5182 13.1147L15.5001 13.417V46.1788L31.0001 51.9913L46.5001 46.1788V13.417C46.5 12.7842 46.2677 12.1735 45.8473 11.7007C45.4268 11.2279 44.8474 10.9258 44.219 10.8517L43.9168 10.8337Z" fill="#4CCD8F"/>
<path d="M23 40V23.578C22.9999 23.229 23.1157 22.8898 23.3293 22.6138C23.5428 22.3377 23.842 22.1404 24.1799 22.0529C24.5177 21.9653 24.8751 21.9925 25.1959 22.1301C25.5166 22.2676 25.7826 22.5079 25.952 22.813L35.048 39.187C35.2174 39.4921 35.4834 39.7324 35.8041 39.8699C36.1249 40.0075 36.4823 40.0347 36.8201 39.9471C37.158 39.8596 37.4572 39.6623 37.6707 39.3862C37.8843 39.1102 38.0001 38.771 38 38.422V22M20 28H41M20 34H41" stroke="#4CCD8F" stroke-width="3" stroke-linecap="round" stroke-linejoin="round"/>
</svg>
