<svg width="24" height="24" viewBox="0 0 24 24" fill="none" xmlns="http://www.w3.org/2000/svg">
<path d="M15.7995 15.5003C16.7197 14.9888 16.6005 13.0178 15.534 11.0948C15.0765 10.2668 14.514 9.59633 13.9515 9.12758C13.2789 9.62676 12.4641 9.89747 11.6265 9.90008C10.7876 9.89822 9.97141 9.62747 9.29774 9.12758C8.73524 9.59633 8.17424 10.2676 7.71524 11.0948C6.64799 13.0171 6.53024 14.9888 7.45274 15.5003C7.86374 15.7343 8.29724 15.5588 8.74424 15.1283C8.66056 15.5921 8.61864 16.0625 8.61899 16.5338C8.61899 18.7373 9.47399 20.5178 10.5262 20.5178C11.1607 20.5178 11.475 19.8691 11.6257 18.8768C11.7757 19.8623 12.0907 20.5178 12.7207 20.5178C13.7685 20.5178 14.6302 18.7366 14.6302 16.5338C14.6302 16.0388 14.5837 15.5663 14.5042 15.1291C14.9542 15.5603 15.3862 15.7388 15.7987 15.5018L15.7995 15.5003ZM11.625 9.15008C12.0505 9.15643 12.4731 9.07809 12.868 8.91961C13.263 8.76113 13.6225 8.52567 13.9256 8.22695C14.2287 7.92823 14.4694 7.5722 14.6336 7.17959C14.7978 6.78698 14.8823 6.36563 14.8822 5.94006C14.882 5.51449 14.7972 5.09319 14.6327 4.7007C14.4682 4.3082 14.2273 3.95235 13.924 3.65384C13.6207 3.35533 13.261 3.12013 12.8659 2.96192C12.4709 2.80372 12.0483 2.72567 11.6227 2.73233C10.7802 2.7455 9.97663 3.08952 9.38556 3.69011C8.7945 4.2907 8.46336 5.09966 8.46366 5.94231C8.46396 6.78496 8.79566 7.59369 9.38714 8.19386C9.97863 8.79403 10.7824 9.13749 11.625 9.15008ZM18.0705 11.1856C18.7558 11.1655 19.4064 10.8792 19.8841 10.3874C20.3618 9.8955 20.629 9.23685 20.629 8.5512C20.629 7.86556 20.3618 7.2069 19.8841 6.71505C19.4064 6.22319 18.7558 5.93686 18.0705 5.91683C17.3716 5.91693 16.7014 6.19465 16.2073 6.6889C15.7132 7.18315 15.4356 7.85345 15.4357 8.55233C15.4358 9.2512 15.7136 9.92142 16.2078 10.4155C16.7021 10.9096 17.3724 11.1872 18.0712 11.1871L18.0705 11.1856ZM21.2805 12.7831C20.904 12.1021 20.4435 11.5516 19.9815 11.1668C19.4289 11.5763 18.7598 11.7984 18.072 11.8006C17.505 11.8006 16.977 11.6453 16.515 11.3881C16.887 12.2078 17.1172 13.0381 17.16 13.7806C17.2305 14.9176 16.875 15.7606 16.164 16.1543C16.0116 16.2381 15.8459 16.2949 15.6742 16.3223C15.6315 16.6163 15.6022 16.9223 15.6022 17.2448C15.6022 19.0546 16.3035 20.5163 17.1682 20.5163C17.6887 20.5163 17.9482 19.9838 18.0712 19.1693C18.1935 19.9793 18.4522 20.5163 18.9712 20.5163C19.83 20.5163 20.5387 19.0538 20.5387 17.2463C20.5387 16.8391 20.499 16.4513 20.4337 16.0913C20.8027 16.4461 21.1582 16.5923 21.4972 16.3973C22.2525 15.9773 22.155 14.3588 21.2797 12.7823L21.2805 12.7831ZM5.17949 11.1856C5.70038 11.1853 6.20949 11.0305 6.64245 10.7409C7.07541 10.4513 7.41279 10.0399 7.61192 9.55853C7.81105 9.0772 7.863 8.54764 7.76119 8.03679C7.65939 7.52594 7.40841 7.05675 7.03998 6.68853C6.67155 6.32031 6.20221 6.06959 5.69131 5.96808C5.1804 5.86657 4.65087 5.91882 4.16965 6.11822C3.68844 6.31763 3.27716 6.65523 2.98779 7.08836C2.69843 7.52149 2.54399 8.03068 2.54399 8.55158C2.54419 9.25049 2.82192 9.92073 3.31613 10.4149C3.81034 10.9091 4.48057 11.1869 5.17949 11.1871V11.1856ZM7.08074 16.1521C5.88674 15.4883 5.77724 13.5091 6.73874 11.3866C6.26348 11.6564 5.72674 11.7992 5.18024 11.8013C4.46324 11.8013 3.80624 11.5613 3.26774 11.1668C2.80649 11.5508 2.34674 12.1013 1.96874 12.7816C1.09349 14.3596 0.997489 15.9781 1.75349 16.3966C2.09099 16.5901 2.44724 16.4453 2.81399 16.0921C2.74662 16.4729 2.71275 16.8589 2.71274 17.2456C2.71274 19.0546 3.41399 20.5156 4.27874 20.5156C4.79924 20.5156 5.05874 19.9831 5.18174 19.1693C5.30549 19.9793 5.56424 20.5163 6.08174 20.5163C6.94199 20.5163 7.64924 19.0538 7.64924 17.2463C7.64924 16.9216 7.61924 16.6148 7.57649 16.3208C7.40291 16.2935 7.23541 16.2361 7.08149 16.1513L7.08074 16.1521Z" fill="black"/>
<rect x="13" y="12" width="9.60746" height="10" rx="4.80373" fill="white"/>
<path fill-rule="evenodd" clip-rule="evenodd" d="M16.1196 13.7049C17.3656 13.5668 18.623 13.5668 19.8689 13.7049C20.6003 13.7866 21.1907 14.3626 21.2764 15.098C21.4245 16.3618 21.4245 17.6384 21.2764 18.9021C21.1903 19.6375 20.5999 20.2132 19.8689 20.2952C18.623 20.4334 17.3656 20.4334 16.1196 20.2952C15.3882 20.2132 14.7978 19.6375 14.7121 18.9021C14.5643 17.6384 14.5643 16.3617 14.7121 15.098C14.7978 14.3626 15.3886 13.7866 16.1196 13.7049ZM19.8025 14.3014C18.6007 14.1682 17.3878 14.1682 16.1861 14.3014C15.9636 14.3261 15.7559 14.425 15.5966 14.5823C15.4373 14.7395 15.3357 14.9459 15.3082 15.168C15.1658 16.3854 15.1658 17.6152 15.3082 18.8325C15.3358 19.0546 15.4375 19.2608 15.5967 19.418C15.756 19.5752 15.9636 19.6741 16.1861 19.6988C17.3778 19.8317 18.6107 19.8317 19.8025 19.6988C20.0248 19.674 20.2323 19.5751 20.3915 19.4179C20.5507 19.2607 20.6523 19.0545 20.6799 18.8325C20.8223 17.6152 20.8223 16.3854 20.6799 15.168C20.6523 14.9461 20.5506 14.74 20.3914 14.5829C20.2322 14.4258 20.0247 14.3269 19.8025 14.3022" fill="black"/>
<path d="M15.805 16.9999C15.805 16.917 15.8366 16.8375 15.8929 16.7789C15.9492 16.7203 16.0256 16.6874 16.1052 16.6874H17.5035V15.2319C17.5035 15.1491 17.5351 15.0696 17.5914 15.011C17.6478 14.9524 17.7241 14.9194 17.8037 14.9194C17.8834 14.9194 17.9597 14.9524 18.016 15.011C18.0723 15.0696 18.104 15.1491 18.104 15.2319V16.6874H19.5023C19.5819 16.6874 19.6583 16.7203 19.7146 16.7789C19.7709 16.8375 19.8025 16.917 19.8025 16.9999C19.8025 17.0827 19.7709 17.1622 19.7146 17.2208C19.6583 17.2794 19.5819 17.3124 19.5023 17.3124H18.104V18.7678C18.104 18.8506 18.0723 18.9301 18.016 18.9887C17.9597 19.0473 17.8834 19.0803 17.8037 19.0803C17.7241 19.0803 17.6478 19.0473 17.5914 18.9887C17.5351 18.9301 17.5035 18.8506 17.5035 18.7678V17.3124H16.1052C16.0256 17.3124 15.9492 17.2794 15.8929 17.2208C15.8366 17.1622 15.805 17.0827 15.805 16.9999Z" fill="black"/>
</svg>
